#N canvas 961 81 958 1118 12;
#X obj 27 189 dsf~;
#X obj 27 274 *~ 0.1;
#X msg 153 155 increment \$1;
#X obj 153 125 *;
#X obj 153 64 + 64;
#X obj 153 92 / 2048;
#X msg 27 65 frequency \$1;
#X obj 27 19 inlet;
#X obj 27 376 outlet~;
#X obj 151 21 r i;
#X connect 0 0 1 0;
#X connect 1 0 8 0;
#X connect 2 0 0 0;
#X connect 3 0 2 0;
#X connect 4 0 5 0;
#X connect 5 0 3 0;
#X connect 5 0 3 1;
#X connect 6 0 0 0;
#X connect 7 0 6 0;
#X connect 9 0 4 0;
