#N canvas 0 81 1920 1119 10;
#X obj 236 16 inlet;
#X obj 327 18 r a;
#X obj 453 19 r d;
#X obj 492 18 r s;
#X obj 104 14 r r;
#X obj 235 439 line~;
#X obj 235 476 outlet~;
#X obj 236 47 sel 0;
#X obj 263 75 t b b b;
#X obj 235 250 0;
#X obj 282 252 pack 1 0;
#X text 284 235 Attack;
#X obj 381 143 delay;
#X obj 382 99 + 1;
#X obj 376 254 pack 0 0 0;
#X text 386 233 Decay;
#X obj 377 296 route 0;
#X msg 237 111 stop;
#X obj 59 253 pack 0 0;
#X text 61 229 Release;
#X connect 0 0 7 0;
#X connect 1 0 10 1;
#X connect 1 0 13 0;
#X connect 2 0 14 2;
#X connect 3 0 14 1;
#X connect 4 0 18 1;
#X connect 5 0 6 0;
#X connect 7 0 17 0;
#X connect 7 0 18 0;
#X connect 7 1 8 0;
#X connect 8 0 12 0;
#X connect 8 1 10 0;
#X connect 8 2 9 0;
#X connect 9 0 5 0;
#X connect 10 0 5 0;
#X connect 12 0 14 0;
#X connect 13 0 12 1;
#X connect 14 0 16 0;
#X connect 16 0 5 0;
#X connect 17 0 12 0;
#X connect 18 0 5 0;
