#N canvas 961 81 958 530 10;
#X obj 17 10 inlet;
#X obj 16 266 outlet~;
#X obj 16 72 mtof;
#X obj 117 220 / 127;
#X obj 17 43 unpack 0 0;
#X obj 16 238 *~;
#X obj 16 208 *~;
#X obj 123 107 adsr;
#X obj 167 107 sel 0;
#X obj 16 150 -~ 0.5;
#X obj 16 108 dsf~;
#X connect 0 0 4 0;
#X connect 2 0 10 0;
#X connect 3 0 5 1;
#X connect 4 0 2 0;
#X connect 4 1 7 0;
#X connect 4 1 8 0;
#X connect 5 0 1 0;
#X connect 6 0 5 0;
#X connect 7 0 6 1;
#X connect 8 1 3 0;
#X connect 9 0 6 0;
#X connect 10 0 9 0;
